<svg id="Capa_1" enable-background="new 0 0 512 512" height="512" viewBox="0 0 512 512" width="512" xmlns="http://www.w3.org/2000/svg"><g><path d="m504.5 504.5h-30l-60-218.5 60-278.5h30z" fill="#acd2f6"/><path d="m474.5 504.5h-30l-60-218.5 60-278.5h30z" fill="#95b0ed"/><path d="m112.5 399.5h332v105h-332z" fill="#acd2f6"/><path d="m324.5 269.5-212 130h-90c0 24.853 20.147 45 45 45h302z" fill="#c4f3ff"/><path d="m324.5 269.5v130c0 24.853 20.147 45 45 45h30v-175z" fill="#acd2f6"/><path d="m414.5 7.5-30 434.429c4.693 1.659 9.739 2.571 15 2.571 24.853 0 45-20.147 45-45v-392z" fill="#c4f3ff"/><path d="m112.5 7.5v392h242c0 19.592 12.524 36.25 30 42.429 17.476-6.179 30-22.837 30-42.429v-30-332-30z" fill="#fff"/><path d="m384.5 37.5h-121l-31.982 105 152.982-45z" fill="#ff545a"/><path d="m142.5 37.5v60l121 45v-105z" fill="#ff7647"/><path d="m263.5 97.5-47.974 128.5 47.974 143.5h121v-272z" fill="#c4f3ff"/><path d="m142.5 97.5h121v272h-121z" fill="#fff"/><path d="m112.5 128.833v210c57.99 0 105-47.01 105-105s-47.01-105-105-105z" fill="#c4f3ff"/><path d="m187.5 233.833c0-57.99-33.579-105-75-105-57.99 0-105 47.01-105 105s47.01 105 105 105c41.421 0 75-47.01 75-105z" fill="#fff"/><circle cx="414.5" cy="260.7" r="7.5"/><circle cx="414.5" cy="315.1" r="7.5"/><circle cx="414.5" cy="206.3" r="7.5"/><circle cx="414.5" cy="151.9" r="7.5"/><circle cx="112.5" cy="308.833" r="7.5"/><path d="m146.25 292.29c-3.587 2.071-4.816 6.658-2.745 10.245s6.658 4.816 10.245 2.745 4.816-6.658 2.745-10.245-6.658-4.816-10.245-2.745z"/><ellipse cx="75.041" cy="168.841" rx="7.5" ry="7.5"/><ellipse cx="177.443" cy="271.521" rx="7.503" ry="7.503"/><path d="m51.298 189.838c-3.587-2.071-8.174-.842-10.245 2.745s-.842 8.174 2.745 10.245 8.174.842 10.245-2.745.842-8.174-2.745-10.245z"/><circle cx="37.5" cy="233.833" r="7.5"/><path d="m181.202 202.828c3.587-2.071 4.816-6.658 2.745-10.245s-6.658-4.816-10.245-2.745-4.816 6.658-2.745 10.245c2.071 3.588 6.658 4.817 10.245 2.745z"/><path d="m43.798 264.838c-3.587 2.071-4.816 6.658-2.745 10.245s6.658 4.816 10.245 2.745 4.816-6.658 2.745-10.245-6.658-4.816-10.245-2.745z"/><ellipse cx="150.022" cy="168.728" rx="7.502" ry="7.502"/><ellipse cx="74.934" cy="298.951" rx="7.503" ry="7.503"/><path d="m112.5 241.333h75c4.142 0 7.5-3.357 7.5-7.5s-3.358-7.5-7.5-7.5h-67.5v-67.5c0-4.143-3.358-7.5-7.5-7.5s-7.5 3.357-7.5 7.5v75c0 4.143 3.358 7.5 7.5 7.5z"/><path d="m504.5 0h-392c-4.142 0-7.5 3.357-7.5 7.5v114.089c-58.549 3.873-105 52.732-105 112.244s46.451 108.371 105 112.244v45.923h-82.5c-4.142 0-7.5 3.357-7.5 7.5 0 28.948 23.551 52.5 52.5 52.5h37.5v52.5c0 4.143 3.358 7.5 7.5 7.5h392c4.142 0 7.5-3.357 7.5-7.5v-497c.021-.435.107-3.273-2.15-5.475-2.183-2.13-4.9-2.046-5.35-2.025zm-489.5 233.833c0-53.762 43.738-97.5 97.5-97.5s97.5 43.738 97.5 97.5-43.738 97.5-97.5 97.5-97.5-43.738-97.5-97.5zm135-128.833h106v257h-106v-22.102c43.65-15.478 75-57.176 75-106.065s-31.35-90.587-75-106.065zm0-15v-45h106v45zm121 15h106v257h-106zm-151 241.077c5.099-.337 10.107-1.009 15-2.006v25.429c0 4.143 3.358 7.5 7.5 7.5h242c4.142 0 7.5-3.357 7.5-7.5v-272c0-4.143-3.358-7.5-7.5-7.5h-113.5v-45h106v22.5c0 4.143 3.358 7.5 7.5 7.5s7.5-3.357 7.5-7.5v-30c0-4.143-3.358-7.5-7.5-7.5h-242c-4.142 0-7.5 3.357-7.5 7.5v86.095c-4.893-.997-9.901-1.669-15-2.006v-106.589h317v384.5c0 20.678-16.822 37.5-37.5 37.5s-37.5-16.822-37.5-37.5c0-4.143-3.358-7.5-7.5-7.5h-234.5zm-89.247 60.923h316.781c1.677 11.673 7.208 22.118 15.259 30h-295.293c-18.109 0-33.262-12.904-36.747-30zm89.247 45h279.5c28.949 0 52.5-23.552 52.5-52.5v-384.5h15v482h-347zm362 45v-482h15v482z"/></g></svg>